<svg xmlns="http://www.w3.org/2000/svg" version="1.1" xmlns:xlink="http://www.w3.org/1999/xlink" width="512" height="512" x="0" y="0" viewBox="0 0 511.999 511.999" style="enable-background:new 0 0 512 512" xml:space="preserve"><g><path d="M475.635 36.393c-48.489-48.483-127.379-48.485-175.866 0l-95.742 95.743c-12.554 12.554-22.057 27.219-28.292 43.631-15.893 6.042-30.79 15.451-43.572 28.232L36.42 299.742C12.935 323.228 0 354.456 0 387.672c0 33.216 12.935 64.444 36.423 87.933 24.243 24.242 56.088 36.364 87.932 36.364s63.689-12.122 87.932-36.364l95.743-95.743c12.554-12.555 22.057-27.219 28.29-43.63 15.894-6.042 30.791-15.451 43.573-28.233l95.743-95.743c48.484-48.484 48.484-127.375-.001-175.863zM296.474 368.307l-95.742 95.743c-42.115 42.114-110.639 42.114-152.753 0-20.402-20.402-31.636-47.526-31.636-76.377 0-28.852 11.235-55.976 31.636-76.376l95.743-95.743c42.113-42.114 110.637-42.115 152.753-.001a109.653 109.653 0 0 1 11.004 12.854 8.173 8.173 0 0 0 13.205-9.629 125.884 125.884 0 0 0-12.65-14.78c-10.589-10.588-22.626-18.862-35.481-24.825l84.998-84.999c8.04-8.039 18.749-12.467 30.156-12.467 11.406 0 22.114 4.428 30.154 12.467s12.466 18.748 12.466 30.154-4.427 22.114-12.467 30.154l-95.742 95.743c-8.038 8.038-18.747 12.466-30.154 12.466-11.406 0-22.115-4.428-30.154-12.467-22.998-22.997-60.42-22.997-83.42 0l-95.742 95.743c-11.126 11.126-17.253 25.94-17.253 41.71s6.127 30.583 17.253 41.708c11.126 11.127 25.938 17.254 41.71 17.254 15.771 0 30.584-6.127 41.71-17.253l90.213-90.212a125.098 125.098 0 0 0 35.684 5.194c7.988 0 15.975-.764 23.843-2.289-5.033 9.604-11.494 18.389-19.334 26.228zm167.605-167.606-95.743 95.743c-42.112 42.115-110.638 42.112-152.752.001a109.621 109.621 0 0 1-11.003-12.853 8.172 8.172 0 1 0-13.206 9.627 125.793 125.793 0 0 0 12.652 14.78c10.588 10.588 22.626 18.862 35.48 24.826l-84.999 84.999c-8.039 8.04-18.748 12.467-30.155 12.467-11.406 0-22.114-4.427-30.154-12.467-8.038-8.038-12.466-18.747-12.466-30.153 0-11.407 4.428-22.115 12.467-30.155l95.742-95.742c16.626-16.626 43.674-16.626 60.301-.008 11.132 11.133 25.945 17.261 41.716 17.261 15.772 0 30.584-6.127 41.71-17.253l95.741-95.742c11.127-11.126 17.254-25.94 17.254-41.71s-6.127-30.584-17.253-41.709c-11.126-11.127-25.938-17.254-41.709-17.254s-30.584 6.127-41.711 17.253l-90.21 90.213a125.28 125.28 0 0 0-59.527-2.905c5.029-9.608 11.491-18.394 19.33-26.232l95.743-95.743c42.113-42.115 110.639-42.115 152.752 0 42.114 42.118 42.114 110.643 0 152.756z" fill="#8500ff" opacity="1" data-original="#000000"></path></g></svg>