<svg xmlns="http://www.w3.org/2000/svg" version="1.1" xmlns:xlink="http://www.w3.org/1999/xlink" width="512" height="512" x="0" y="0" viewBox="0 0 24 24" style="enable-background:new 0 0 512 512" xml:space="preserve"><g><clipPath id="a"><path d="M0 0h24v24H0z" fill="#8f02e5" opacity="1" data-original="#000000"></path></clipPath><g fill="#000" clip-path="url(#a)"><path d="M16 8a4 4 0 1 1-8 0 4 4 0 0 1 8 0zM19 20a7 7 0 1 0-14 0z" fill="#8f02e5" opacity="1" data-original="#000000"></path><path fill-rule="evenodd" d="M4 0a4 4 0 0 0-4 4v16a4 4 0 0 0 4 4h16a4 4 0 0 0 4-4V4a4 4 0 0 0-4-4zM2 4a2 2 0 0 1 2-2h16a2 2 0 0 1 2 2v16a2 2 0 0 1-2 2H4a2 2 0 0 1-2-2z" clip-rule="evenodd" fill="#8f02e5" opacity="1" data-original="#000000"></path></g></g></svg>